{"title":"Ee Rojullo (2012) WebRip 720p","uid":8395437,"size":1722400853,"categoryP":"video","categoryS":"hd___movies","magnet":"?xt=urn:btih:255b8ff40156f963e1931c4e73b5dae7231a88b5&amp;dn=Ee+Rojullo+%282012%29+WebRip+720p&amp;tr=udp%3A%2F%2Ftracker.openbittorrent.com%3A80&amp;tr=udp%3A%2F%2Fopen.demonii.com%3A1337&amp;tr=udp%3A%2F%2Ftracker.coppersurfer.tk%3A6969&amp;tr=udp%3A%2F%2Fexodus.desync.com%3A6969","seeders":1,"leechers":0,"uploader":"raj8888","files":1,"time":1366558989,"description":"Ee Rojullo (2012)\n\nCertificate: U - Comedy | Romance - 23 March 2012 (India)\n\nRatings: 6.7/10 from 30 users\n\n\nSrinivas is a gullible lover who gets used by girlfriends for his money. Shreya is fed up with guys who wants to take their friendship to next level in order to have a physical relationship. They happen to meet each other when they decided to not to fall in love. Their relationship starts with hatred and lies. The rest of the story is all about how Srinivas and Shreya unite after many twists and turns.\n\n\nGeneral :\n\n\nFormat : MPEG-4\nFormat profile : Base Media / Version 2\nCodec ID : mp42\nFile size : 1.60 GiB\nDuration : 1h 59mn\nOverall bit rate mode : Variable\nOverall bit rate : 1 921 Kbps\n\nVideo :\n\n\nFormat : AVC\nFormat/Info : Advanced Video Codec\nFormat profile : High.1\nBit rate : 1 726 Kbps\nMaximum bit rate : 8 349 Kbps\nWidth : 1 280 pixels\nHeight : 720 pixels\nDisplay aspect ratio : 16:9\nFrame rate mode : Constant\nFrame rate : 25.000 fps\nColor space : YUV\nChroma subsampling : 4:2:0\nBit depth : 8 bits\nScan type : Progressive\nBits/(Pixel*Frame) : 0.075\nStream size : 1.44 GiB (90%)\n\n\nAudio : \n\n\nFormat : AAC\nFormat/Info : Advanced Audio Codec\nFormat profile : LC\nCodec ID : 40\nDuration : 1h 59mn\nBit rate mode : Variable\nBit rate : 192 Kbps\nMaximum bit rate : 201 Kbps\nChannel(s) : 2 channels\nChannel positions : Front: L R\nSampling rate : 44.1 KHz\nCompression mode : Lossy\nStream size : 164 MiB (10%)\n","torrent":{"xt":"urn:btih:255b8ff40156f963e1931c4e73b5dae7231a88b5","amp;dn":"Ee+Rojullo+%282012%29+WebRip+720p","amp;tr":["udp%3A%2F%2Ftracker.openbittorrent.com%3A80","udp%3A%2F%2Fopen.demonii.com%3A1337","udp%3A%2F%2Ftracker.coppersurfer.tk%3A6969","udp%3A%2F%2Fexodus.desync.com%3A6969"],"infoHash":"255b8ff40156f963e1931c4e73b5dae7231a88b5","infoHashBuffer":{"type":"Buffer","data":[37,91,143,244,1,86,249,99,225,147,28,78,115,181,218,231,35,26,136,181]},"announce":[],"urlList":[]}}